<svg xmlns="http://www.w3.org/2000/svg" width="24" height="24" viewBox="0 0 24 24" fill="none" stroke="currentColor" stroke-width="2" stroke-linecap="round" stroke-linejoin="round">
  <rect x="3" y="3" width="18" height="18" rx="2" ry="2"></rect>
  <path d="M14 8a2 2 0 0 0-2-2"></path>
  <path d="M16 8a4 4 0 0 0-4-4"></path>
  <path d="M8.8 12a1.2 1.2 0 1 0 2.4 0 1.2 1.2 0 1 0-2.4 0"></path>
  <path d="M12.8 16a1.2 1.2 0 1 0 2.4 0 1.2 1.2 0 1 0-2.4 0"></path>
  <path d="M8.8 16a1.2 1.2 0 1 0 2.4 0 1.2 1.2 0 1 0-2.4 0"></path>
</svg>
